<?xml version="1.0" encoding="iso-8859-1"?>
<!-- Generator: Adobe Illustrator 19.0.0, SVG Export Plug-In . SVG Version: 6.00 Build 0)  -->
<svg version="1.1" id="Layer_1" xmlns="http://www.w3.org/2000/svg" xmlns:xlink="http://www.w3.org/1999/xlink" x="0px" y="0px" fill='#3a5ba0'
	 viewBox="0 0 512 512" style="enable-background:new 0 0 512 512;" xml:space="preserve">
<g>
	<g>
		<path d="M253.519,224.374c-0.419-7.68-6.247-14.213-14.15-15.237l-31.06-4.024c-11.122-21.563-36.115-33.351-60.528-26.905
			c-28.212,7.447-45.106,36.461-37.658,64.674l9.557,36.203l-17.751,4.686c-0.008,0.002-0.015,0.004-0.023,0.007l-84.673,22.351
			c-6.19,1.634-11.473,5.809-14.493,11.456c-3.031,5.663-3.575,12.399-1.491,18.487c7.347,21.446,20.583,40.061,38.079,53.979
			c0.476,0.418,0.983,0.801,1.507,1.161c5.076,3.907,10.477,7.447,16.208,10.529c15.614,8.397,32.66,13.084,49.983,13.949
			l-3.6,4.777l-2.063-1.502c-7.267-5.289-17.447-3.686-22.736,3.581c-5.29,7.267-3.687,17.447,3.579,22.736l12.7,9.245
			c0.592,0.614,1.223,1.202,1.926,1.732c2.934,2.211,6.371,3.278,9.782,3.278c4.936,0,9.812-2.237,13.01-6.481l30.54-40.527
			l46.563,20.172c2.107,0.914,4.302,1.345,6.461,1.345c6.291,0,12.282-3.669,14.942-9.81c0.35-0.807,0.609-1.63,0.82-2.456
			l6.482-14.309c3.71-8.187,0.078-17.832-8.109-21.542c-8.185-3.709-17.831-0.078-21.541,8.109l-1.052,2.324l-10.669-4.622
			c9.938-7.623,18.727-16.861,25.953-27.459c15.745-23.091,23.09-50.925,20.685-78.373c-0.102-1.166-0.33-2.29-0.659-3.367
			c-0.024-0.098-0.036-0.194-0.062-0.292l-5.76-21.823l24.122-21.957C252.417,234.761,254.164,229.456,253.519,224.374z
			 M62.397,360.168c-2.161,0.571-4.352,0.949-6.551,1.17c-8.183-7.301-15.032-16.226-19.967-26.467l57.561-15.194
			C93.524,338.209,81.129,355.223,62.397,360.168z M134.824,380.436c-7.227,1.907-14.505,2.821-21.689,2.821
			c-6.558,0-13.031-0.774-19.31-2.234c22.287-15.363,34.904-42.188,31.645-69.802l18.253-4.819
			c8.691-2.295,13.876-11.199,11.582-19.89c-0.097-0.365-0.22-0.713-0.34-1.064c-0.07-0.369-0.136-0.737-0.233-1.106l-13.137-49.77
			c-2.867-10.858,3.636-22.026,14.495-24.892c10.86-2.868,22.029,3.637,24.894,14.496l0.029,0.111
			c0.013,0.048,0.024,0.094,0.038,0.142l9.102,34.483c0.005,0.022,0.012,0.043,0.017,0.064l8.183,31
			C201.376,331.273,174.264,370.025,134.824,380.436z"/>
	</g>
</g>
<g>
	<g>
		<path d="M177.22,225.289c-1.115-4.224-3.807-7.761-7.581-9.965l-0.082-0.048c-3.711-2.143-8.116-2.742-12.264-1.667l-0.021,0.005
			c-4.187,1.085-7.842,3.85-10.027,7.583l-0.037,0.064c-2.17,3.748-2.762,8.204-1.647,12.389l0.012,0.051
			c1.109,4.158,3.814,7.71,7.528,9.884l0.026,0.015c3.761,2.202,8.245,2.809,12.456,1.687l0.029-0.008
			c4.172-1.112,7.733-3.831,9.905-7.561l0.026-0.046C177.723,233.932,178.326,229.477,177.22,225.289z"/>
	</g>
</g>
<g>
	<g>
		<path d="M507.333,309.257c-3.853-5.116-9.714-8.43-16.082-9.095l-87.071-9.086c-0.022-0.002-0.042-0.004-0.064-0.007
			l-18.247-1.904l3.887-37.242c3.028-29.022-18.119-55.098-47.141-58.126c-25.106-2.618-47.998,12.863-55.68,35.877l-30.073,8.744
			c-7.65,2.224-12.407,9.574-11.643,17.226c0.142,5.121,2.683,10.096,7.281,13.137l27.207,17.994l-2.343,22.449
			c-0.011,0.102-0.008,0.202-0.016,0.303c-0.161,1.112-0.214,2.256-0.136,3.422c1.837,27.493,13.368,53.869,32.471,74.271
			c8.768,9.364,18.872,17.142,29.859,23.151l-9.832,6.204l-1.396-2.134c-4.923-7.522-15.011-9.629-22.531-4.707
			c-7.521,4.922-9.628,15.009-4.707,22.53l8.601,13.144c0.336,0.784,0.718,1.558,1.188,2.302c3.096,4.905,8.378,7.592,13.78,7.592
			c2.968,0,5.973-0.813,8.669-2.513l42.916-27.081l36.399,35.357c3.162,3.073,7.252,4.602,11.338,4.602
			c4.243,0,8.484-1.65,11.676-4.935c0.613-0.631,1.147-1.308,1.637-2.007l11.131-11.086c6.369-6.343,6.391-16.647,0.047-23.016
			c-6.343-6.369-16.648-6.39-23.016-0.047l-1.809,1.801l-4.285-4.162c16.984-3.514,33.107-10.771,47.243-21.464
			c23.838-18.03,39.838-44.116,45.052-73.456C512.769,320.963,511.199,314.388,507.333,309.257z M386.462,391.639
			c-40.569-4.233-73.309-38.362-76.661-79.634l3.332-31.935l3.704-35.499c0.005-0.043,0.009-0.087,0.013-0.13l0.013-0.125
			c1.165-11.171,11.195-19.312,22.374-18.146c11.171,1.166,19.311,11.203,18.146,22.374l-5.343,51.197
			c-0.039,0.376-0.047,0.748-0.06,1.12c-0.064,0.369-0.135,0.735-0.174,1.112c-0.933,8.939,5.557,16.943,14.498,17.877l18.763,1.958
			c0.563,16.007,6.26,31.332,16.527,43.99c7.015,8.649,15.685,15.471,25.432,20.156C414.511,390.982,400.67,393.123,386.462,391.639
			z M461.576,360.645c-2.209,0.12-4.433,0.082-6.656-0.15c-11.071-1.156-21.032-6.553-28.044-15.199
			c-4.761-5.871-7.771-12.764-8.854-20.049l59.217,6.18C473.935,342.304,468.54,352.173,461.576,360.645z"/>
	</g>
</g>
<g>
	<g>
		<path d="M338.675,230.242l-0.116-0.011c-4.294-0.409-8.576,0.908-11.897,3.661l-0.119,0.099
			c-3.322,2.754-5.411,6.716-5.806,11.014c-0.838,8.867,5.616,16.831,14.499,17.818l0.178,0.02c0.547,0.054,1.09,0.081,1.63,0.081
			c8.237,0,15.373-6.253,16.285-14.605l0.029-0.279C354.175,239.117,347.589,231.134,338.675,230.242z"/>
	</g>
</g>
<g>
	<g>
		<path d="M328.51,60.232c-18.533-18.533-48.687-18.531-67.218,0l-3.901,3.901l-3.901-3.901
			c-18.396-18.396-48.244-18.533-66.809-0.405c-8.344,7.459-13.237,19.483-13.449,33.115c-0.218,14.005,4.609,26.635,13.259,34.729
			l59.387,59.386c0.002,0.002,0.003,0.003,0.005,0.005c3.178,3.178,7.343,4.768,11.508,4.768s8.331-1.59,11.508-4.768l59.611-59.611
			C347.043,108.92,347.043,78.764,328.51,60.232z M305.495,104.435l-48.104,48.103l-48.104-48.103l-0.529-0.507
			c-1.53-1.397-3.045-5.425-2.981-10.418c0.07-5.527,1.932-8.839,2.602-9.421l0.908-0.841c5.842-5.841,15.345-5.841,21.187,0
			l15.404,15.404c0.002,0.002,0.003,0.003,0.005,0.005c2.118,2.118,4.68,3.514,7.382,4.221c1.352,0.353,2.736,0.546,4.125,0.546
			c2.863,0,5.719-0.769,8.262-2.272c1.156-0.682,2.254-1.502,3.247-2.494c0.003-0.003,0.007-0.008,0.01-0.011l15.398-15.398
			c5.841-5.838,15.346-5.841,21.186,0C311.337,89.09,311.337,98.595,305.495,104.435z"/>
	</g>
</g>
<g>
</g>
<g>
</g>
<g>
</g>
<g>
</g>
<g>
</g>
<g>
</g>
<g>
</g>
<g>
</g>
<g>
</g>
<g>
</g>
<g>
</g>
<g>
</g>
<g>
</g>
<g>
</g>
<g>
</g>
</svg>
