<?xml version="1.0" encoding="iso-8859-1"?>
<!-- Generator: Adobe Illustrator 19.0.0, SVG Export Plug-In . SVG Version: 6.00 Build 0)  -->
<svg version="1.1" id="Capa_1" xmlns="http://www.w3.org/2000/svg" xmlns:xlink="http://www.w3.org/1999/xlink" x="0px" y="0px" fill='#3a5ba0'
	 viewBox="0 0 489.9 489.9" style="enable-background:new 0 0 489.9 489.9;" xml:space="preserve">
<g>
	<path d="M489.4,183.08c-4.7-26.7-37.2-44.4-79.5-55.9l40.7-32.6c8.3-7.3,10.4-20.8,3.1-29.1s-20.8-10.4-29.1-3.1l-67.5,54.1
		c-38.8-5.7-79.5-7.9-112.1-7.9c-87.4,0-233.9,15.5-244.4,74.5c-0.6,2.6-0.6,7.5-0.6,7.8c1.6,133.6,110,241.1,244,241.1
		c133.3,0,241.2-106.3,245.9-238.9C489.9,192.08,489.8,184.68,489.4,183.08z M40.7,189.88c9.4-14.6,83.4-40.7,204.3-40.7
		c24.5,0,47,1.1,67.6,2.9l-96.6,77.4c-0.2,0.2-0.3,0.3-0.5,0.5C111.9,226.28,48.3,203.28,40.7,189.88z M245,391.48
		c-93.4,0-172.3-63.4-196.1-149.4c53,22.2,137.7,29.1,196.1,29.1c58.5,0,143.3-7.4,196.3-29.6C417.7,327.88,338.6,391.48,245,391.48
		z M281.8,229.78l87.3-69.9c47.1,8.9,75.3,21.5,80.2,30.1C441,202.98,380.9,225.18,281.8,229.78z"/>
</g>
<g>
</g>
<g>
</g>
<g>
</g>
<g>
</g>
<g>
</g>
<g>
</g>
<g>
</g>
<g>
</g>
<g>
</g>
<g>
</g>
<g>
</g>
<g>
</g>
<g>
</g>
<g>
</g>
<g>
</g>
</svg>
