<svg width="895" height="825" viewBox="0 0 895 825" fill="none" xmlns="http://www.w3.org/2000/svg">
<mask id="mask0_101_42" style="mask-type:luminance" maskUnits="userSpaceOnUse" x="0" y="0" width="896" height="825">
<path d="M0 824.682L895 824.682L895 0.000183105L7.2096e-05 0.000104862L0 824.682Z" fill="white"/>
</mask>
<g mask="url(#mask0_101_42)">
<path d="M562.907 562.059C559.099 565.846 556.078 570.348 554.017 575.308C551.958 580.267 550.899 585.585 550.904 590.954C550.908 596.324 551.975 601.64 554.044 606.596C556.111 611.552 559.14 616.049 562.954 619.83C566.768 623.61 571.293 626.598 576.267 628.621C581.242 630.645 586.567 631.664 591.937 631.62C597.306 631.576 602.614 630.47 607.555 628.366C612.495 626.261 616.971 623.199 620.722 619.357C654.631 585.104 677.624 541.566 686.793 494.247C695.963 446.929 690.898 397.954 672.238 353.513C653.579 309.073 622.164 271.163 581.962 244.574C541.761 217.981 494.579 203.908 446.381 204.131C398.184 204.349 351.13 218.854 311.174 245.811C271.218 272.767 240.15 310.964 221.901 355.576C203.647 400.185 199.03 449.204 208.636 496.436C218.238 543.669 241.626 586.994 275.848 620.936C279.643 624.699 284.145 627.676 289.095 629.699C294.042 631.721 299.339 632.75 304.687 632.725C310.032 632.7 315.32 631.623 320.25 629.554C325.179 627.485 329.65 624.466 333.416 620.669C337.177 616.872 340.155 612.37 342.174 607.422C344.198 602.474 345.225 597.176 345.204 591.831C345.178 586.486 344.1 581.197 342.033 576.268C339.962 571.339 336.941 566.866 333.146 563.103C310.327 540.486 294.722 511.61 288.312 480.126C281.903 448.642 284.975 415.965 297.135 386.225C309.296 356.487 330.001 331.019 356.637 313.048C383.268 295.077 414.632 285.407 446.762 285.257C478.892 285.112 510.344 294.495 537.14 312.222C563.938 329.95 584.876 355.225 597.309 384.851C609.742 414.477 613.111 447.125 606.99 478.666C600.869 510.208 585.532 539.225 562.92 562.051L562.907 562.059Z" fill="#F3F2EF"/>
<path d="M276.541 824.681C303.275 824.633 329.736 819.282 354.39 808.939C379.045 798.595 401.402 783.465 420.169 764.423C427.772 756.766 438.101 752.438 448.893 752.389C459.684 752.34 470.055 756.574 477.728 764.162C516.097 802.091 567.944 823.254 621.895 823.007C675.847 822.76 727.498 801.123 765.518 762.844C827.775 699.958 869.991 620.027 886.828 533.153C903.665 446.279 894.369 356.363 860.113 274.774C825.858 193.181 768.182 123.577 694.376 74.7599C620.569 25.9426 533.946 0.102742 445.457 0.509224C356.966 0.911427 270.585 27.5429 197.229 77.0319C123.868 126.521 66.8311 196.651 33.3235 278.548C-0.18405 360.449 -8.66047 450.447 8.9726 537.163C26.6014 623.88 69.5439 703.422 132.374 765.736C151.312 784.605 173.806 799.531 198.555 809.649C223.3 819.767 249.807 824.876 276.541 824.681ZM189.681 707.916C138.215 656.922 103.03 591.812 88.5719 520.82C74.1137 449.828 81.0282 376.144 108.447 309.082C135.866 242.02 182.552 184.598 242.61 144.068C302.663 103.544 373.388 81.7343 445.838 81.4049C518.286 81.0711 589.206 102.23 649.629 142.207C710.052 182.18 757.265 239.178 785.296 305.984C813.327 372.789 820.917 446.41 807.108 517.532C793.299 588.653 758.71 654.083 707.715 705.546C684.901 728.514 653.909 741.495 621.536 741.644C589.164 741.792 558.054 729.095 535.03 706.338C512.011 683.578 480.905 670.88 448.533 671.027C416.164 671.175 385.176 684.157 362.366 707.125C339.573 730.126 308.572 743.132 276.19 743.28C243.808 743.429 212.692 730.708 189.689 707.916" fill="#F3F2EF"/>
<path d="M447.502 375.669C410.978 375.669 381.373 405.276 381.373 441.798C381.373 478.321 410.978 507.928 447.502 507.928C484.025 507.928 513.632 478.321 513.632 441.798C513.632 405.276 484.025 375.669 447.502 375.669Z" fill="#F3F2EF"/>
</g>
</svg>
